<?xml version="1.0" encoding="UTF-8" standalone="no"?>
<svg
   xmlns:dc="http://purl.org/dc/elements/1.1/"
   xmlns:cc="http://creativecommons.org/ns#"
   xmlns:rdf="http://www.w3.org/1999/02/22-rdf-syntax-ns#"
   xmlns:svg="http://www.w3.org/2000/svg"
   xmlns="http://www.w3.org/2000/svg"
   xmlns:sodipodi="http://sodipodi.sourceforge.net/DTD/sodipodi-0.dtd"
   xmlns:inkscape="http://www.inkscape.org/namespaces/inkscape"
   width="4in"
   height="1.3in"
   version="1.1"
   id="svg18"
   sodipodi:docname="stacks.svg"
   inkscape:version="1.0.1 (3bc2e813f5, 2020-09-07)">
  <metadata
     id="metadata24">
    <rdf:RDF>
      <cc:Work
         rdf:about="">
        <dc:format>image/svg+xml</dc:format>
        <dc:type
           rdf:resource="http://purl.org/dc/dcmitype/StillImage" />
        <dc:title />
      </cc:Work>
    </rdf:RDF>
  </metadata>
  <defs
     id="defs22" />
  <sodipodi:namedview
     pagecolor="#000000"
     bordercolor="#666666"
     borderopacity="1"
     objecttolerance="10"
     gridtolerance="10"
     guidetolerance="10"
     inkscape:pageopacity="1"
     inkscape:pageshadow="2"
     inkscape:window-width="1920"
     inkscape:window-height="1043"
     id="namedview20"
     showgrid="true"
     inkscape:zoom="1.9671875"
     inkscape:cx="187.62513"
     inkscape:cy="68.961441"
     inkscape:window-x="0"
     inkscape:window-y="0"
     inkscape:window-maximized="1"
     inkscape:current-layer="layer1"
     units="mm"
     inkscape:document-rotation="0">
    <inkscape:grid
       type="xygrid"
       id="grid16" />
  </sodipodi:namedview>
  <g
     inkscape:groupmode="layer"
     id="layer1"
     inkscape:label="Layer 1">
    <rect
       style="fill:#000000"
       id="rect18"
       width="385"
       height="125"
       x="0"
       y="0" />
  </g>
  <g
     inkscape:groupmode="layer"
     id="layer3"
     inkscape:label="Layer 2">
    <path
       fill="none"
       stroke="#ffffff"
       stroke-width="6.5"
       stroke-miterlimit="4"
       d="m 86.75,64.413628 q 0,0.534 -0.0262,1.067 -0.0262,0.533 -0.0785,1.065 -0.0524,0.531 -0.1307,1.059 -0.0784,0.528 -0.1825,1.052 -0.1042,0.524 -0.2339,1.042 -0.1298,0.518 -0.2848,1.029 -0.1549,0.511 -0.3348,1.013 -0.1799,0.503 -0.3842,0.996 -0.2044,0.494 -0.4326,0.976 -0.2283,0.483 -0.48,0.954 -0.2517,0.471 -0.5262,0.929 -0.2745,0.458 -0.5712,0.902 -0.2966,0.444 -0.6147,0.872 -0.318,0.429 -0.6567,0.842 -0.3387,0.413 -0.6973,0.808 -0.3586,0.396 -0.7361,0.774 -0.3776,0.377 -0.7732,0.736 -0.3956,0.358 -0.8084,0.697 -0.4127,0.339 -0.8415,0.657 -0.4289,0.318 -0.8729,0.614 -0.4439,0.297 -0.9019,0.572 -0.458,0.274 -0.9288,0.526 -0.4709,0.251 -0.9536,0.48 -0.4827,0.228 -0.976,0.432 -0.4932,0.205 -0.996,0.385 -0.5027,0.179 -1.0136,0.334 -0.511,0.155 -1.0289,0.285 -0.5179,0.13 -1.0416,0.234 -0.5237,0.104 -1.0518,0.183 -0.5282,0.078 -1.0595,0.13 -0.5314,0.053 -1.0647,0.079 -0.5333,0.026 -1.0672,0.026 -0.5339,0 -1.0672,-0.026 -0.5333,-0.026 -1.0647,-0.079 -0.5313,-0.052 -1.0595,-0.13 -0.5281,-0.079 -1.0518,-0.183 -0.5237,-0.104 -1.0416,-0.234 -0.5179,-0.13 -1.0289,-0.285 -0.5109,-0.155 -1.0137,-0.334 -0.5027,-0.18 -0.996,-0.385 -0.4933,-0.204 -0.9759,-0.432 -0.4827,-0.229 -0.9536,-0.48 -0.4709,-0.252 -0.9288,-0.526 -0.458,-0.275 -0.902,-0.572 -0.4439,-0.296 -0.8728,-0.614 -0.4288,-0.318 -0.8416,-0.657 -0.4127,-0.339 -0.8083,-0.697 -0.3956,-0.359 -0.7732,-0.736 -0.3775,-0.378 -0.7361,-0.774 -0.3586,-0.395 -0.6973,-0.808 -0.3387,-0.413 -0.6568,-0.842 -0.318,-0.428 -0.6147,-0.872 -0.2966,-0.444 -0.5711,-0.902 -0.2745,-0.458 -0.5262,-0.929 -0.2517,-0.471 -0.48,-0.954 -0.2283,-0.482 -0.4326,-0.976 -0.2043,-0.493 -0.3842,-0.996 -0.1799,-0.502 -0.3349,-1.013 -0.155,-0.511 -0.2847,-1.029 -0.1297,-0.518 -0.2339,-1.042 -0.1041,-0.524 -0.1825,-1.052 -0.0783,-0.528 -0.1307,-1.059 -0.0523,-0.532 -0.0785,-1.065 -0.0262,-0.533 -0.0262,-1.067 0,-0.534 0.0262,-1.067 0.0262,-0.534 0.0785,-1.065 0.0524,-0.531 0.1307,-1.059 0.0784,-0.529 0.1825,-1.052 0.1042,-0.524 0.2339,-1.042 0.1297,-0.518 0.2847,-1.029 0.155,-0.511 0.3349,-1.013 0.1799,-0.503 0.3842,-0.996 0.2043,-0.494 0.4326,-0.976 0.2283,-0.483 0.48,-0.954 0.2517,-0.471 0.5262,-0.929 0.2745,-0.458 0.5711,-0.902 0.2967,-0.444 0.6147,-0.872 0.3181,-0.429 0.6568,-0.842 0.3387,-0.413 0.6973,-0.808 0.3586,-0.396 0.7361,-0.774 0.3776,-0.377 0.7732,-0.736 0.3956,-0.358 0.8083,-0.697 0.4128,-0.339 0.8416,-0.657 0.4289,-0.318 0.8728,-0.614 0.444,-0.297 0.902,-0.572 0.4579,-0.274 0.9288,-0.526 0.4709,-0.252 0.9536,-0.48 0.4826,-0.228 0.9759,-0.432 0.4933,-0.205 0.996,-0.385 0.5028,-0.18 1.0137,-0.334 0.511,-0.156 1.0289,-0.285 0.5179,-0.13 1.0416,-0.234 0.5237,-0.104 1.0518,-0.183 0.5282,-0.078 1.0595,-0.13 0.5314,-0.053 1.0647,-0.079 0.5333,-0.026 1.0672,-0.026"
       id="path2" />
    <path
       fill="none"
       stroke="#ffffff"
       stroke-width="6.5"
       stroke-miterlimit="4"
       stroke-opacity="0.733333"
       d="m 67.424,99.078628 q -0.8509,0.06 -1.7038,0.078 -0.8529,0.017 -1.7056,-0.007 -0.8527,-0.024 -1.7033,-0.09 -0.8505,-0.066 -1.6967,-0.174 -0.8463,-0.108 -1.6862,-0.257 -0.8399,-0.149 -1.6716,-0.339 -0.8316,-0.19 -1.6529,-0.42 -0.8213,-0.231 -1.6302,-0.502 -0.809,-0.271 -1.6037,-0.581 -0.7948,-0.31 -1.5733,-0.658 -0.7786,-0.349 -1.5391,-0.735 -0.7605,-0.387 -1.5011,-0.81 -0.7407,-0.424 -1.4596,-0.883 -0.719,-0.459 -1.4146,-0.953 -0.6955,-0.493 -1.366,-1.021 -0.6705,-0.527 -1.3144,-1.087 -0.6438,-0.56 -1.2594,-1.15 -0.6155,-0.591 -1.2014,-1.211 -0.5858,-0.62 -1.1406,-1.268 -0.5547,-0.648 -1.077,-1.323 -0.5222,-0.674 -1.0108,-1.373 -0.4885,-0.7 -0.9421,-1.422 -0.4537,-0.723 -0.8713,-1.466 -0.4176,-0.744 -0.7983,-1.508 -0.3806,-0.763 -0.7233,-1.544 -0.3427,-0.781 -0.6467,-1.578 -0.304,-0.798 -0.5685,-1.609 -0.2645,-0.811 -0.4889,-1.634 -0.2243,-0.823 -0.4081,-1.656 -0.1837,-0.833 -0.3263,-1.674 -0.1427,-0.841 -0.2439,-1.688 -0.1011,-0.847 -0.1607,-1.698 -0.0595,-0.851 -0.0771,-1.704 -0.0177,-0.853 0.0065,-1.705 0.0242,-0.853 0.0902,-1.704 0.066,-0.85 0.1736,-1.696 0.1077,-0.847 0.2567,-1.687 0.1491,-0.84 0.3392,-1.671 0.19,-0.832 0.4207,-1.653 0.2307,-0.821 0.5013,-1.63 0.2707,-0.809 0.5808,-1.604 0.31,-0.795 0.6587,-1.573 0.3487,-0.779 0.7351,-1.539 0.3865,-0.761 0.8098,-1.502 0.4233,-0.74 0.8824,-1.459 0.4592,-0.719 0.953,-1.415 0.4939,-0.695 1.0213,-1.366 0.5274,-0.67 1.087,-1.314 0.5597,-0.644 1.1503,-1.259 0.5906,-0.616 1.2106,-1.202 0.6201,-0.586 1.2682,-1.141 0.648,-0.554 1.3225,-1.077 0.6746,-0.522 1.3739,-1.01 0.6993,-0.489 1.4217,-0.942 0.7225,-0.454 1.4663,-0.872 0.7439,-0.417 1.5073,-0.798 0.7635,-0.381 1.5447,-0.723 0.7811,-0.343 1.5782,-0.647 0.7971,-0.304 1.6081,-0.569 0.811,-0.264 1.6341,-0.488 0.823,-0.225 1.656,-0.409 0.8331,-0.183 1.6741,-0.326 0.8411,-0.143 1.6881,-0.244 0.8471,-0.101 1.6981,-0.16 0.8509,-0.06 1.7038,-0.078 0.8529,-0.017 1.7056,0.007 0.8528,0.024 1.7033,0.09 0.8505,0.066 1.6967,0.174 0.8463,0.107 1.6862,0.256 0.8399,0.15 1.6715,0.34 0.8317,0.19 1.653,0.42 0.8212,0.231 1.6302,0.502 0.809,0.27 1.6037,0.58 0.7948,0.31 1.5733,0.659 0.7786,0.349 1.5391,0.735 0.7605,0.387 1.5011,0.81 0.7406,0.423 1.4596,0.882 0.719,0.46 1.4146,0.953 0.6955,0.494 1.366,1.022 0.6705,0.527 1.3143,1.087 0.6439,0.559 1.2594,1.15 0.6156,0.591 1.2015,1.211 0.5858,0.62 1.1406,1.268 0.5547,0.648 1.077,1.322 0.5222,0.675 1.0108,1.374 0.4885,0.7 0.9421,1.422 0.4537,0.723 0.8713,1.466 0.4176,0.744 0.7983,1.508 0.3806,0.763 0.7233,1.544 0.3427,0.781 0.6467,1.578 0.304,0.798 0.5685,1.609 0.2645,0.811 0.4889,1.634 0.2243,0.823 0.4081,1.656 0.1837,0.833 0.3263,1.674 0.1427,0.841 0.2439,1.688 0.1011,0.847 0.1607,1.698"
       id="path4" />
    <path
       fill="none"
       stroke="#ffffff"
       stroke-width="6.5"
       stroke-miterlimit="4"
       stroke-opacity="0.509804"
       d="m 18.2934,74.341628 q -0.2437,-1.147 -0.4308,-2.304 -0.1872,-1.157 -0.3173,-2.322 -0.1302,-1.165 -0.203,-2.335 -0.0729,-1.17 -0.0882,-2.342 -0.0154,-1.172 0.0268,-2.344 0.0422,-1.171 0.1418,-2.339 0.0996,-1.168 0.2565,-2.33 0.1568,-1.161 0.3704,-2.314 0.2136,-1.152 0.4835,-2.293 0.2699,-1.141 0.5955,-2.267 0.3255,-1.126 0.706,-2.235 0.3804,-1.108 0.8147,-2.197 0.4344,-1.089 0.9217,-2.155 0.4872,-1.066 1.0262,-2.107 0.539,-1.041 1.1284,-2.054 0.5895,-1.013 1.2279,-1.997 0.6384,-0.983 1.3243,-1.933 0.6859,-0.951 1.4176,-1.867 0.7317,-0.915 1.5075,-1.794 0.7757,-0.879 1.5937,-1.719 0.8179,-0.839 1.6761,-1.638 0.8581,-0.798 1.7545,-1.554 0.8963,-0.755 1.8286,-1.466 0.9323,-0.71 1.8983,-1.374 0.966,-0.664 1.9635,-1.28 0.9974,-0.615 2.0239,-1.181 1.0265,-0.567 2.0795,-1.082 1.053,-0.515 2.13,-0.977 1.077,-0.463 2.1754,-0.872 1.0984,-0.41 2.2156,-0.765 1.1172,-0.355 2.2504,-0.654 1.1332,-0.3 2.2798,-0.544 1.1466,-0.243 2.3038,-0.43 1.1571,-0.188 2.3221,-0.318 1.1649,-0.13 2.3348,-0.203 1.17,-0.073 2.3421,-0.088 1.1721,-0.015 2.3435,0.027 1.1714,0.042 2.3394,0.142 1.168,0.099 2.3296,0.256 1.1617,0.157 2.3142,0.37 1.1526,0.214 2.2933,0.484 1.1407,0.27 2.2668,0.595 1.1261,0.326 2.2348,0.706 1.1088,0.381 2.1975,0.815 1.0888,0.435 2.1549,0.922 1.0661,0.487 2.107,1.026 1.041,0.539 2.0542,1.129 1.0132,0.589 1.9963,1.227 0.9831,0.639 1.9337,1.325 0.9506,0.686 1.8663,1.417 0.9158,0.732 1.7946,1.508 0.8787,0.776 1.7184,1.594 0.8396,0.818 1.6381,1.676 0.7984,0.858 1.5544,1.754 0.755,0.896 1.466,1.829 0.71,0.932 1.374,1.898 0.664,0.966 1.28,1.963 0.615,0.998 1.181,2.024 0.567,1.027 1.082,2.08 0.515,1.053 0.977,2.13 0.463,1.077 0.872,2.175 0.41,1.099 0.765,2.216 0.354,1.117 0.654,2.25 0.3,1.134 0.544,2.28 0.243,1.147 0.43,2.304 0.188,1.157 0.318,2.322 0.13,1.165 0.203,2.335 0.073,1.17 0.088,2.342 0.015,1.172 -0.027,2.343 -0.042,1.172 -0.142,2.34 -0.099,1.168 -0.256,2.329 -0.157,1.162 -0.371,2.315 -0.213,1.152 -0.483,2.293 -0.27,1.141 -0.596,2.267 -0.325,1.126 -0.706,2.235 -0.38,1.108 -0.814,2.197 -0.435,1.089 -0.922,2.155 -0.487,1.066 -1.026,2.107 -0.539,1.041 -1.129,2.054 -0.589,1.013 -1.227,1.996 -0.639,0.984 -1.325,1.934 -0.686,0.951 -1.417,1.867 -0.732,0.915 -1.508,1.794 -0.776,0.879 -1.5936,1.718 -0.8179,0.84 -1.6761,1.639 -0.8582,0.798002 -1.7545,1.554002 -0.8963,0.755 -1.8286,1.465 -0.9323,0.711 -1.8983,1.375 -0.9661,0.664 -1.9635,1.28 -0.9975,0.615 -2.0239,1.181 -1.0265,0.566 -2.0795,1.081 -1.053,0.515 -2.13,0.978 -1.077,0.463 -2.1754,0.872 -1.0984,0.41 -2.2156,0.764 -1.1171,0.355 -2.2504,0.655 -1.1332,0.3 -2.2798,0.544"
       id="path6" />
    <path
       fill="none"
       stroke="#ffffff"
       stroke-width="6.5"
       stroke-miterlimit="4"
       stroke-opacity="0.32549"
       d="m 40.2907,8.9156281 q 1.3624,-0.606 2.753,-1.145 1.3905,-0.539 2.8058,-1.01 1.4153,-0.47 2.8519,-0.87 1.4367,-0.4 2.8912,-0.729 1.4546,-0.329 2.9235,-0.587 1.469,-0.257 2.9488,-0.442 1.4798,-0.185 2.9669,-0.297 1.4871,-0.112 2.9779,-0.151 1.4909,-0.039 2.9818,-0.005 1.4909,0.034 2.9784,0.141 1.4875,0.108 2.9679,0.288 1.4804,0.18 2.9502,0.432 1.4698,0.253 2.9254,0.577 1.4556,0.325 2.8936,0.72 1.4379,0.396 2.8548,0.861 1.4168,0.465 2.8091,1 1.3922,0.534 2.7566,1.137 1.3644,0.602 2.6976,1.2699999 1.3332,0.668 2.6319,1.401 1.2988,0.733 2.5601,1.529 1.2612,0.796 2.4819,1.652 1.221,0.857 2.398,1.773 1.177,0.915 2.308,1.888 1.131,0.972 2.213,1.998 1.081,1.027 2.111,2.105 1.031,1.079 2.006,2.207 0.976,1.127 1.896,2.301 0.919,1.174 1.78,2.392 0.861,1.218 1.661,2.477 0.8,1.259 1.537,2.555 0.737,1.296 1.41,2.627 0.672,1.331 1.279,2.694 0.606,1.362 1.145,2.753 0.539,1.39 1.01,2.805 0.47,1.416 0.87,2.852 0.4,1.437 0.729,2.892 0.329,1.454 0.587,2.923 0.257,1.469 0.442,2.949 0.185,1.48 0.297,2.967 0.112,1.487 0.151,2.978 0.039,1.491 0.005,2.981 -0.034,1.491 -0.141,2.979 -0.108,1.487 -0.288,2.968 -0.18,1.48 -0.432,2.95 -0.253,1.47 -0.577,2.925 -0.325,1.456 -0.72,2.894 -0.396,1.438 -0.861,2.855 -0.466,1.417 -1,2.809 -0.534,1.392 -1.137,2.756 -0.602,1.365 -1.27,2.698 -0.668,1.333 -1.401,2.632 -0.733,1.299 -1.529,2.56 -0.796,1.261 -1.653,2.482 -0.856,1.221002 -1.772,2.398002 -0.915,1.177 -1.888,2.308 -0.972,1.131 -1.999,2.212 -1.026,1.082 -2.104,2.112 -1.079,1.03 -2.207,2.006 -1.127,0.976 -2.301,1.896 -1.175,0.919 -2.392,1.78 -1.2183,0.861 -2.477,1.66 -1.2586,0.8 -2.555,1.538 -1.2964,0.737 -2.6274,1.41 -1.331,0.672 -2.6933,1.279 -1.3624,0.606 -2.753,1.145 -1.3905,0.539 -2.8058,1.01 -1.4153,0.47 -2.8519,0.87 -1.4367,0.4 -2.8912,0.729 -1.4546,0.329 -2.9235,0.587 -1.469,0.257 -2.9488,0.442 -1.4798,0.185 -2.9669,0.297 -1.4871,0.112 -2.978,0.151 -1.4908,0.039 -2.9817,0.005 -1.4909,-0.034 -2.9784,-0.141 -1.4875,-0.108 -2.9679,-0.288 -1.4804,-0.18 -2.9502,-0.432 -1.4698,-0.253 -2.9254,-0.577 -1.4556,-0.325 -2.8936,-0.72 -1.4379,-0.396 -2.8547,-0.861 -1.4169,-0.465 -2.8091,-1 -1.3923,-0.535 -2.7567,-1.137 -1.3644,-0.602 -2.6975,-1.27 -1.3332,-0.668 -2.632,-1.401 -1.2988,-0.733 -2.5601,-1.529 -1.2612,-0.796 -2.4819,-1.653 -1.2207,-0.856 -2.3979,-1.772 -1.1772,-0.915 -2.308,-1.888 -1.1309,-0.972 -2.2126,-1.999 -1.0818,-1.026 -2.1119,-2.105 -1.0301,-1.078 -2.006,-2.206 -0.976,-1.127 -1.8954,-2.301 -0.9194,-1.175 -1.7802,-2.392002 -0.8607,-1.218 -1.6606,-2.477 -0.7999,-1.259 -1.5371,-2.555 -0.7372,-1.296 -1.4099,-2.627 -0.6727,-1.331 -1.27928,-2.694"
       id="path8" />
    <path
       fill="none"
       stroke="#ffffff"
       stroke-width="6.5"
       stroke-miterlimit="4"
       stroke-opacity="0.184314"
       d="m 121.496,17.007628 q 1.164,1.387 2.258,2.83 1.094,1.442 2.116,2.936 1.022,1.494 1.97,3.037 0.948,1.543 1.819,3.13 0.87,1.587 1.662,3.215 0.792,1.629 1.503,3.294 0.711,1.665 1.34,3.362 0.628,1.698 1.173,3.425 0.544,1.726 1.003,3.478 0.459,1.751 0.832,3.523 0.372,1.772 0.657,3.559 0.286,1.788 0.483,3.588 0.197,1.8 0.305,3.607 0.109,1.807 0.129,3.618 0.019,1.81 -0.05,3.619 -0.069,1.809 -0.227,3.613 -0.157,1.803 -0.404,3.597 -0.246,1.794 -0.579,3.573 -0.334,1.78 -0.755,3.54 -0.421,1.761 -0.927,3.499 -0.507,1.738 -1.098,3.45 -0.592,1.711 -1.266,3.391 -0.675,1.68 -1.431,3.325 -0.756,1.645 -1.592,3.251 -0.836,1.606002 -1.75,3.169002 -0.913,1.563 -1.903,3.079 -0.989,1.516 -2.052,2.982 -1.062,1.466 -2.196,2.878 -1.133,1.412 -2.334,2.766 -1.201,1.355 -2.467,2.649 -1.266,1.294 -2.594,2.525 -1.329,1.23 -2.715,2.394 -1.387,1.164 -2.83,2.258 -1.442,1.094 -2.936,2.116 -1.495,1.022 -3.037,1.97 -1.543,0.948 -3.13,1.819 -1.5873,0.87 -3.2154,1.662 -1.6281,0.792 -3.2931,1.503 -1.665,0.711 -3.3629,1.34 -1.6979,0.628 -3.4245,1.173 -1.7267,0.544 -3.478,1.003 -1.7513,0.459 -3.523,0.832 -1.7717,0.372 -3.5596,0.657 -1.7879,0.285 -3.5876,0.483 -1.7997,0.197 -3.6069,0.305 -1.8072,0.109 -3.6175,0.129 -1.8104,0.019 -3.6195,-0.05 -1.8092,-0.069 -3.6127,-0.227 -1.8036,-0.157 -3.5973,-0.404 -1.7936,-0.246 -3.573,-0.58 -1.7795,-0.333 -3.5404,-0.754 -1.7609,-0.421 -3.499,-0.927 -1.7381,-0.507 -3.4493,-1.098 -1.7112,-0.592 -3.3913,-1.266 -1.6801,-0.675 -3.3251,-1.431 -1.645,-0.756 -3.2509,-1.592 -1.6059,-0.836 -3.1688,-1.75 -1.5629,-0.914 -3.0792,-1.903 -1.5162,-0.989 -2.982,-2.052 -1.4659,-1.062 -2.8778,-2.196 -1.412,-1.133 -2.7666,-2.334 -1.3547,-1.201 -2.6488,-2.467 -1.294,-1.266 -2.5244,-2.594 -1.23043,-1.329 -2.39417,-2.715 -1.16374,-1.387 -2.25803,-2.83 -1.09429,-1.442 -2.11649,-2.936 -1.0222,-1.495 -1.96984,-3.037 -0.94765,-1.543 -1.818462,-3.130002 -0.870812,-1.587 -1.662688,-3.215 -0.79188,-1.629 -1.50292,-3.294 -0.71104,-1.665 -1.33952,-3.362 -0.62848,-1.698 -1.1729,-3.425 -0.54442,-1.727 -1.00345,-3.478 -0.45904,-1.751 -0.83159,-3.523 -0.37256,-1.772 -0.65772,-3.56 -0.28517,-1.787 -0.48227,-3.587 -0.1971,-1.8 -0.30566,-3.607 -0.10855,-1.807 -0.1283,-3.617 -0.01975,-1.811 0.04935,-3.62 0.06911,-1.809 0.2269,-3.613 0.15779,-1.803 0.40389,-3.597 0.2461,-1.794 0.57991,-3.573 0.33381,-1.78 0.75454,-3.54 0.42072,-1.761 0.92734,-3.499 0.50662,-1.739 1.09791,-3.45 0.5913,-1.711 1.26585,-3.391 0.67454,-1.68 1.43071,-3.325 0.75618,-1.645 1.592155,-3.251 0.835977,-1.606 1.749745,-3.169 0.91377,-1.563 1.90313,-3.079 0.98935,-1.516 2.05192,-2.982 1.06256,-1.466 2.19577,-2.878 1.13321,-1.412 2.33434,-2.767 1.20115,-1.354 2.46725,-2.648 1.2662,-1.294 2.5943,-2.525 1.3281,-1.2299999 2.715,-2.3939999"
       id="path10" />
    <path
       fill="none"
       stroke="#ffffff"
       stroke-width="6.5"
       stroke-miterlimit="4"
       stroke-opacity="0.0823529"
       d="m 140.128,107.78863 q -1.065,1.844 -2.219,3.634 -1.154,1.79 -2.395,3.521 -1.24,1.731 -2.564,3.399 -1.324,1.668 -2.728,3.269 -1.404,1.601 -2.885,3.132 -1.481,1.53 -3.035,2.986 -1.555,1.455 -3.179,2.833 -1.623,1.378 -3.313,2.674 -1.689,1.297 -3.441,2.509 -1.751,1.212 -3.559,2.336 -1.809,1.125 -3.67,2.159 -1.862,1.035 -3.771,1.977 -1.91,0.941 -3.8643,1.789 -1.9539,0.847 -3.947,1.597 -1.9931,0.75 -4.0206,1.401 -2.0275,0.652 -4.0846,1.203 -2.057,0.551 -4.1386,1.001 -2.0816,0.449 -4.1827,0.796 -2.1012,0.347 -4.2168,0.59 -2.1157,0.244 -4.2407,0.383 -2.125,0.139 -4.2543,0.174 -2.1293,0.035 -4.2578,-0.034 -2.1284,-0.07 -4.2509,-0.244 -2.1225,-0.174 -4.2339,-0.452 -2.1113,-0.278 -4.2065,-0.659 -2.0952,-0.382 -4.1692,-0.865 -2.0739,-0.484 -4.1217,-1.069 -2.0477,-0.584 -4.0643,-1.269 -2.0166,-0.684 -3.9971,-1.467 -1.9806,-0.783 -3.9203,-1.662 -1.9398,-0.878 -3.8341,-1.852 -1.8943,-0.972 -3.7386,-2.037 -1.8443,-1.065 -3.6341,-2.219 -1.7898,-1.154 -3.5208,-2.394 -1.7311,-1.241 -3.3992,-2.565 -1.66804,-1.324 -3.26915,-2.728 -1.60111,-1.404 -3.1314,-2.885 -1.53029,-1.481 -2.98606,-3.035 -1.455773,-1.555 -2.83353,-3.179 -1.37775,-1.624 -2.67416,-3.313 -1.29642,-1.69 -2.50837,-3.441 -1.21195,-1.751 -2.33652,-3.559 -1.12457,-1.809 -2.15901,-3.67 -1.0345,-1.862 -1.9764,-3.772 -0.9419,-1.909 -1.7889,-3.863002 -0.8471,-1.954 -1.5972,-3.947 -0.7502,-1.993 -1.4016,-4.021 -0.6515,-2.027 -1.2027,-4.084 -0.5511,-2.058 -1.0007,-4.139 -0.4496,-2.082 -0.7965,-4.183 -0.3469,-2.101 -0.5903,-4.217 -0.2434,-2.115 -0.3827,-4.24 -0.1392,-2.125 -0.1741,-4.255 -0.0348,-2.129 0.0349,-4.258 0.0696,-2.128 0.2437,-4.25 0.174,-2.123 0.452,-4.234 0.2779,-2.112 0.6592,-4.207 0.3812,-2.095 0.8648,-4.169 0.4836,-2.074 1.0683,-4.122 0.5848,-2.047 1.2693,-4.064 0.6846,-2.016 1.4672,-3.997 0.7827,-1.981 1.6616,-3.92 0.8789,-1.94 1.8519,-3.834 0.973,-1.895 2.0378,-3.739 1.0648,-1.844 2.2188,-3.634 1.15401,-1.79 2.39445,-3.521 1.24044,-1.731 2.56433,-3.399 1.32388,-1.6679999 2.728018,-3.2689999 1.404142,-1.601 2.885152,-3.132 1.481,-1.53 3.03532,-2.986 1.55431,-1.45499997 3.17818,-2.833 1.62385,-1.378 3.31335,-2.674 1.6896,-1.297 3.4407,-2.509 1.7511,-1.212 3.5595,-2.336 1.8085,-1.1250001 3.6699,-2.1590001 1.8615,-1.035 3.7715,-1.977 1.9099,-0.942 3.8638,-1.789 1.9539,-0.847 3.947,-1.597 1.9931,-0.75 4.0206,-1.401 2.0275,-0.652 4.0845,-1.203 2.0571,-0.551 4.1387,-1.001 2.0816,-0.449 4.1827,-0.796 2.1012,-0.347 4.2168,-0.591 2.1156,-0.243 4.2407,-0.382 2.125,-0.14 4.2543,-0.174 2.1293,-0.035 4.2578,0.035 2.1284,0.069 4.2509,0.243 2.1224,0.174 4.2338,0.452 2.1114,0.278 4.2066,0.659 2.0952,0.382 4.1691,0.865 2.074,0.484 4.1217,1.069 2.0478,0.584 4.0643,1.269 2.0166,0.684 3.9972,1.467 1.9805,0.783 3.92,1.662 1.94,0.878 3.834,1.851 1.895,0.973 3.739,2.038"
       id="path12" />
    <path
       fill="none"
       stroke="#ffffff"
       stroke-width="6.5"
       stroke-miterlimit="4"
       stroke-opacity="0.0196078"
       d="m 54.5733,163.61763 q -2.4353,-0.256 -4.8551,-0.632 -2.4198,-0.375 -4.8183,-0.868 -2.3985,-0.494 -4.7699,-1.104 -2.3714,-0.611 -4.71,-1.337 -2.3386,-0.726 -4.6387,-1.566 -2.3001,-0.84 -4.5563,-1.792 -2.2561,-0.952 -4.4629,-2.013 -2.2067,-1.062 -4.3587,-2.23 -2.1519,-1.169 -4.244,-2.441 -2.0921,-1.273 -4.11915,-2.646 -2.0271,-1.374 -3.98434,-2.846 -1.95725,-1.471 -3.83993,-3.037 -1.882682,-1.566 -3.68627,-3.222 -1.80358,-1.657 -3.52372,-3.399 -1.72014,-1.743 -3.35269,-3.568 -1.6326,-1.825 -3.1736,-3.728 -1.541,-1.903 -2.9868,-3.88 -1.4458,-1.976 -2.7929,-4.021 -1.3471,-2.045 -2.5922,-4.153 -1.2451,-2.109 -2.3853,-4.276 -1.1402,-2.167 -2.1726,-4.388 -1.0325,-2.22 -1.9547,-4.488 -0.9223,-2.269002 -1.7321,-4.580002 -0.8099,-2.311 -1.5054,-4.659 -0.6954,-2.348 -1.2749,-4.727 -0.5794,-2.379 -1.0414,-4.783 -0.462,-2.405 -0.8054,-4.83 -0.3435,-2.424 -0.5675,-4.863 -0.2241,-2.438 -0.3282,-4.885 -0.1042,-2.446 -0.0882,-4.895 0.0161,-2.449 0.1522,-4.894 0.1362,-2.444 0.3921,-4.88 0.256,-2.435 0.6311,-4.855 0.3752,-2.42 0.8686,-4.818 0.4935,-2.399 1.104,-4.77 0.6105,-2.371 1.3367,-4.71 0.7261,-2.339 1.5661,-4.639 0.84,-2.3 1.7919,-4.556 0.9519,-2.256 2.0133,-4.463 1.0615,-2.207 2.2299,-4.359 1.1684,-2.152 2.441,-4.244 1.2726,-2.092 2.6464,-4.1189999 1.3737,-2.027 2.8453,-3.984 1.4715,-1.957 3.0373,-3.83999997 1.5658,-1.88300003 3.22213,-3.68600003 1.6563,-1.804 3.3991,-3.524 1.74281,-1.72 3.56792,-3.353 1.825107,-1.6320001 3.72812,-3.1730001 1.90302,-1.541 3.87936,-2.987 1.97634,-1.446 4.02127,-2.793 2.0449,-1.347 4.1534,-2.592 2.1085,-1.245 4.2756,-2.386 2.1671,-1.14 4.3875,-2.172 2.2205,-1.033 4.4889,-1.955 2.2684,-0.922 4.5793,-1.732 2.311,-0.81 4.6588,-1.505 2.3479,-0.696 4.7271,-1.275 2.3792,-0.58 4.7839,-1.042 2.4048,-0.462 4.8293,-0.805 2.4245,-0.343 4.863,-0.568 2.4384,-0.224 4.885,-0.328 2.4465,-0.104 4.8951,-0.088 2.4487,0.016 4.8936,0.152 2.445,0.137 4.8803,0.392 2.4353,0.256 4.8551,0.631 2.4198,0.376 4.8183,0.869 2.3985,0.494 4.7699,1.104 2.3714,0.611 4.71,1.337 2.3386,0.726 4.6387,1.566 2.3003,0.84 4.5563,1.792 2.256,0.952 4.463,2.013 2.207,1.062 4.359,2.23 2.152,1.168 4.244,2.441 2.092,1.273 4.119,2.646 2.027,1.374 3.984,2.846 1.957,1.471 3.84,3.037 1.883,1.566 3.686,3.2220001 1.804,1.656 3.524,3.399 1.72,1.743 3.353,3.568 1.632,1.82500003 3.173,3.728 1.541,1.903 2.987,3.88 1.446,1.976 2.793,4.021 1.347,2.0449999 2.592,4.1529999 1.245,2.109 2.385,4.276 1.141,2.167 2.173,4.387 1.033,2.221 1.955,4.489 0.922,2.269 1.732,4.58 0.81,2.311 1.505,4.658 0.696,2.348 1.275,4.728 0.58,2.379 1.042,4.784 0.462,2.404 0.805,4.829 0.343,2.424 0.568,4.863 0.224,2.438 0.328,4.885 0.104,2.446 0.088,4.895 -0.016,2.449 -0.152,4.894 -0.136,2.444 -0.392,4.88 0,0 0,0"
       id="path14" />
    <path
       fill="#ffffff"
       d="m 145.44532,89.40844 q -7.12377,0 -11.25178,-3.527812 Q 130.13367,82.287292 130,76.093963 h 5.99151 q 0,3.727005 2.46371,5.857846 2.52922,2.13084 6.9901,2.13084 4.19353,0 6.52357,-2.062695 2.39555,-2.130841 2.39555,-5.792322 0,-2.930233 -1.59878,-5.126597 -1.59879,-2.196365 -4.46088,-3.061282 l -6.59171,-2.062695 q -4.99293,-1.530641 -7.72135,-5.058453 -2.66027,-3.595957 -2.66027,-8.523362 0,-3.860674 1.72983,-6.790907 1.79798,-2.930234 4.99293,-4.526398 3.2631,-1.66431 7.52216,-1.66431 6.39252,0 10.18767,3.595957 3.86067,3.527812 3.99434,9.453803 h -5.99151 q 0,-3.595957 -2.19637,-5.658653 -2.13084,-2.062695 -6.05704,-2.062695 -3.86067,0 -6.05704,1.931647 -2.13084,1.863503 -2.13084,5.192122 0,2.995757 1.59879,5.192122 1.59878,2.196364 4.59454,3.129426 l 6.65724,2.130841 q 4.85926,1.53064 7.52216,5.192121 2.66289,3.661481 2.66289,8.588886 0,3.928819 -1.8635,6.990101 -1.8635,2.995757 -5.26027,4.660066 -3.39414,1.66431 -7.78949,1.66431 z m 42.67185,-0.665724 h -5.99152 V 45.538812 h -13.31447 v -5.45946 h 32.62046 v 5.45946 h -13.31447 z m 26.42976,0 h -6.12519 l 12.64876,-48.59784 h 8.05421 l 12.58323,48.59784 H 235.6509 L 232.45595,75.826625 H 217.7445 Z m 4.39273,-17.974543 h 12.25036 l -3.727,-14.978787 q -1.79798,-7.322962 -2.39556,-10.850774 -0.6002,3.595957 -2.39556,10.78525 z m 46.33333,18.640267 q -6.65724,0 -10.51791,-3.727005 Q 250.8944,81.95443 250.8944,75.428239 V 53.459353 q 0,-6.52357 3.86068,-10.253196 3.86067,-3.727005 10.51791,-3.727005 6.52357,0 10.38424,3.79515 3.86068,3.727005 3.86068,10.185051 h -5.99152 q 0,-4.128012 -2.19636,-6.389901 -2.13084,-2.264509 -6.05704,-2.264509 -3.92882,0 -6.19071,2.264509 -2.19636,2.26451 -2.19636,6.324377 v 22.03441 q 0,4.128012 2.19636,6.389901 2.19636,2.264509 6.19071,2.264509 3.92882,0 6.05704,-2.264509 2.19636,-2.264509 2.19636,-6.389901 h 5.99152 q 0,6.458046 -3.86068,10.253196 -3.86067,3.727005 -10.38424,3.727005 z m 31.82369,-0.665724 h -5.99151 v -48.59784 h 5.99151 v 20.836632 h 7.1893 l 10.78525,-20.836632 h 6.52357 l -12.04856,23.365858 12.71428,25.231982 h -6.85643 L 304.08678,66.241775 h -6.9901 z m 48.06317,0.665724 q -7.12377,0 -11.25178,-3.527812 -4.05987,-3.595957 -4.19354,-9.786665 h 5.99152 q 0,3.727005 2.4637,5.857846 2.52922,2.13084 6.9901,2.13084 4.19353,0 6.52357,-2.062695 2.39556,-2.130841 2.39556,-5.792322 0,-2.930233 -1.59879,-5.126597 -1.59879,-2.196365 -4.46087,-3.061282 l -6.59172,-2.062695 q -4.99293,-1.530641 -7.72135,-5.058453 -2.66289,-3.595957 -2.66289,-8.520741 0,-3.860674 1.72983,-6.790907 1.79798,-2.930234 4.99293,-4.526404 3.26834,-1.666925 7.5274,-1.666925 6.3899,0 10.18505,3.595957 3.86067,3.527812 3.99434,9.453803 h -5.99151 q 0,-3.595957 -2.19637,-5.658653 -2.13084,-2.062695 -6.05704,-2.062695 -3.86067,0 -6.05704,1.931647 -2.13084,1.863503 -2.13084,5.192122 0,2.995757 1.59879,5.192122 1.59879,2.196364 4.59454,3.129426 l 6.65724,2.130841 q 4.85926,1.53064 7.52216,5.192121 2.66289,3.661481 2.66289,8.588886 0,3.928819 -1.8635,6.990101 -1.8635,2.995757 -5.26027,4.660066 -3.39414,1.66431 -7.78949,1.66431 z"
       id="path16"
       style="stroke-width:2.62096" />
  </g>
</svg>
